<svg width="224" height="288" viewBox="0 0 224 288" fill="none" xmlns="http://www.w3.org/2000/svg">
<g clip-path="url(#clip0_1084_5272)">
<path d="M162.762 138.591L93.2877 74.6571C91.1866 72.729 87.9671 72.6613 85.7981 74.488L37.5054 115.216C36.2515 116.299 35.5059 117.855 35.5059 119.512L35.167 178.135C35.167 181.281 37.7087 183.818 40.8266 183.818H147.138C149.273 183.818 151.375 183.514 153.374 182.871C163.27 179.691 187.67 169.78 202.717 143.733C204.073 141.399 225.491 102.768 204.988 62.4455C188.789 30.6477 158.153 20.7025 150.968 18.639C150.46 18.5037 149.951 18.436 149.409 18.436H90.0001" stroke="#00AB7D" stroke-width="20" stroke-miterlimit="10" stroke-linecap="round"/>
<path d="M43 32C51.8366 32 59 24.8366 59 16C59 7.16344 51.8366 0 43 0C34.1634 0 27 7.16344 27 16C27 24.8366 34.1634 32 43 32Z" fill="#00AB7D"/>
<path d="M83.7645 124.586H77.1222C75.1756 124.586 73.5977 126.161 73.5977 128.104V134.734C73.5977 136.677 75.1756 138.252 77.1222 138.252H83.7645C85.7111 138.252 87.2891 136.677 87.2891 134.734V128.104C87.2891 126.161 85.7111 124.586 83.7645 124.586Z" fill="#00AB7D"/>
<path d="M101.252 124.586H94.6095C92.6629 124.586 91.085 126.161 91.085 128.104V134.734C91.085 136.677 92.6629 138.252 94.6095 138.252H101.252C103.198 138.252 104.776 136.677 104.776 134.734V128.104C104.776 126.161 103.198 124.586 101.252 124.586Z" fill="#00AB7D"/>
<path d="M83.7645 142.887H77.1222C75.1756 142.887 73.5977 144.462 73.5977 146.405V153.035C73.5977 154.978 75.1756 156.553 77.1222 156.553H83.7645C85.7111 156.553 87.2891 154.978 87.2891 153.035V146.405C87.2891 144.462 85.7111 142.887 83.7645 142.887Z" fill="#00AB7D"/>
<path d="M101.252 142.887H94.6095C92.6629 142.887 91.085 144.462 91.085 146.405V153.035C91.085 154.978 92.6629 156.553 94.6095 156.553H101.252C103.198 156.553 104.776 154.978 104.776 153.035V146.405C104.776 144.462 103.198 142.887 101.252 142.887Z" fill="#00AB7D"/>
</g>
<path d="M23.104 269H3.584V226.12H23.104C36.416 226.12 44.8 234.312 44.8 247.56C44.8 260.808 36.416 269 23.104 269ZM23.104 232.328H10.432V262.792H23.104C33.024 262.792 37.504 258.568 37.504 247.56C37.504 236.552 33.024 232.328 23.104 232.328ZM54.43 269H46.75L65.886 226.12H75.614L94.75 269H86.942L82.014 257.864H59.358L54.43 269ZM67.934 238.6L62.11 251.656H79.262L73.438 238.6L70.942 232.52H70.43L67.934 238.6ZM116.312 247.112H107.608V237.192H116.312V247.112ZM116.312 269H107.608V259.08H116.312V269ZM153.444 269.64C140.004 269.64 131.108 260.936 131.108 247.56C131.108 234.184 140.004 225.48 153.444 225.48C167.012 225.48 175.844 234.184 175.844 247.56C175.844 260.936 167.012 269.64 153.444 269.64ZM153.444 262.984C163.62 262.984 168.548 258.248 168.548 247.56C168.548 236.872 163.62 232.072 153.444 232.072C143.268 232.072 138.404 236.872 138.404 247.56C138.404 258.248 143.268 262.984 153.444 262.984ZM187.862 269H180.95V226.12H188.374L207.574 251.208L213.142 259.208H213.654L213.334 251.464V226.12H220.246V269H212.822L193.494 243.976L188.118 236.424H187.606L187.862 243.848V269Z" fill="#00AB7D"/>
<defs>
<clipPath id="clip0_1084_5272">
<rect width="199" height="194" fill="white" transform="translate(25)"/>
</clipPath>
</defs>
</svg>
