<svg width="21" height="21" viewBox="0 0 21 21" fill="none" xmlns="http://www.w3.org/2000/svg">
<path fill-rule="evenodd" clip-rule="evenodd" d="M14.3182 7.63654C14.3182 8.64919 13.916 9.62036 13.1999 10.3364C12.4839 11.0525 11.5127 11.4547 10.5001 11.4547C9.48742 11.4547 8.51625 11.0525 7.8002 10.3364C7.08416 9.62036 6.68188 8.64919 6.68188 7.63654C6.68188 6.6239 7.08416 5.65273 7.8002 4.93668C8.51625 4.22063 9.48742 3.81836 10.5001 3.81836C11.5127 3.81836 12.4839 4.22063 13.1999 4.93668C13.916 5.65273 14.3182 6.6239 14.3182 7.63654ZM12.4092 7.63654C12.4092 8.14286 12.208 8.62845 11.85 8.98647C11.492 9.3445 11.0064 9.54563 10.5001 9.54563C9.99374 9.54563 9.50816 9.3445 9.15014 8.98647C8.79211 8.62845 8.59098 8.14286 8.59098 7.63654C8.59098 7.13022 8.79211 6.64463 9.15014 6.28661C9.50816 5.92859 9.99374 5.72745 10.5001 5.72745C11.0064 5.72745 11.492 5.92859 11.85 6.28661C12.208 6.64463 12.4092 7.13022 12.4092 7.63654Z" fill="#00AB7D"/>
<path fill-rule="evenodd" clip-rule="evenodd" d="M10.5 0C4.70114 0 0 4.70114 0 10.5C0 16.2989 4.70114 21 10.5 21C16.2989 21 21 16.2989 21 10.5C21 4.70114 16.2989 0 10.5 0ZM1.90909 10.5C1.90909 12.495 2.58968 14.3315 3.73036 15.7901C4.53165 14.7383 5.56515 13.8859 6.7502 13.2994C7.93525 12.7129 9.23981 12.4082 10.562 12.4091C11.8673 12.4076 13.1556 12.7041 14.3288 13.2762C15.502 13.8482 16.5291 14.6806 17.3317 15.7099C18.1587 14.6252 18.7156 13.3591 18.9562 12.0164C19.1968 10.6737 19.1142 9.29301 18.7153 7.98858C18.3164 6.68414 17.6125 5.49345 16.6621 4.51504C15.7116 3.53662 14.5418 2.79859 13.2495 2.36203C11.9571 1.92547 10.5794 1.80292 9.23032 2.00452C7.88123 2.20612 6.59953 2.72608 5.49128 3.52137C4.38303 4.31666 3.48009 5.36442 2.85717 6.57796C2.23425 7.7915 1.90926 9.13592 1.90909 10.5ZM10.5 19.0909C8.52782 19.0941 6.61514 18.4156 5.08582 17.1704C5.70132 16.2889 6.52068 15.5693 7.47416 15.0727C8.42764 14.5761 9.487 14.3173 10.562 14.3182C11.6237 14.3173 12.6702 14.5697 13.6147 15.0544C14.5591 15.5392 15.3743 16.2424 15.9925 17.1055C14.4513 18.3912 12.5071 19.094 10.5 19.0909Z" fill="#00AB7D"/>
</svg>
