<svg width="22" height="22" viewBox="0 0 22 22" fill="none" xmlns="http://www.w3.org/2000/svg">
<path d="M19.6389 13.1366L19.5399 12.1416L19.5069 12.1446L19.4749 12.1506L19.6389 13.1366ZM19.6389 13.1366L19.7389 14.1316L19.7719 14.1286L19.8039 14.1236L19.6389 13.1366ZM15.5987 18.6188L16.2317 17.8448L16.2237 17.8388L15.5987 18.6188ZM15.5987 18.6188L14.9657 19.3929L14.9737 19.3999L15.5987 18.6188ZM6.40231 18.6188L5.76928 17.8458L5.75328 17.8588L5.73828 17.8718L6.40231 18.6188ZM6.40231 18.6188L7.03533 19.3939L7.05133 19.3809L7.06633 19.3669L6.40231 18.6188ZM2.36113 8.86441V7.86437H2.31112L2.26212 7.86937L2.36113 8.86441ZM2.36113 8.86441V9.86446H2.41113L2.46113 9.85946L2.36113 8.86441ZM14.1316 2.26112C14.1152 2.06877 14.0915 1.87699 14.0626 1.6861C14.0318 1.47594 13.9676 1.27204 13.8726 1.08207L12.0956 2.00011C12.0726 1.95511 12.0776 1.93911 12.0906 2.01811C12.1056 2.10711 12.1186 2.23112 12.1416 2.46113L14.1316 2.26112ZM14.2267 3.21116C14.2897 3.29317 14.2687 3.33017 14.2337 3.13516C14.2007 2.94915 14.1747 2.68814 14.1316 2.26112L12.1406 2.46013C12.1806 2.85415 12.2146 3.20816 12.2656 3.49018C12.3146 3.76019 12.4006 4.1152 12.6356 4.42322L14.2267 3.21116ZM14.2267 3.21116L12.6356 4.42322C12.8496 4.70408 13.1342 4.92327 13.4603 5.05852C13.7865 5.19377 14.1427 5.24025 14.4927 5.19325L14.2267 3.21116ZM14.9647 2.60614C14.7406 2.79556 14.5101 2.97734 14.2737 3.15116C14.1106 3.26417 14.1236 3.22416 14.2267 3.21116L14.4927 5.19325C14.8767 5.14125 15.1887 4.95124 15.4147 4.79323C15.6497 4.63123 15.9247 4.40522 16.2307 4.1542L14.9647 2.60614ZM15.9807 1.95611C15.7794 2.02307 15.59 2.12164 15.4197 2.24812C15.2797 2.34812 15.1227 2.47713 14.9647 2.60614L16.2307 4.1542C16.4097 4.0082 16.5068 3.9292 16.5808 3.87719C16.6458 3.83019 16.6368 3.84619 16.5898 3.86119L15.9807 1.95611ZM17.3848 2.02611C16.9407 1.83365 16.4418 1.80877 15.9807 1.95611L16.5898 3.86119L17.3848 2.02611ZM18.3308 2.77414C18.1962 2.6357 18.0571 2.50162 17.9138 2.37213C17.7566 2.22939 17.5777 2.11258 17.3838 2.02611L16.5898 3.86119C16.5438 3.84119 16.5368 3.82519 16.5968 3.87819C16.6648 3.9382 16.7538 4.0252 16.9168 4.18821L18.3308 2.77414ZM19.2249 3.66818L18.3308 2.77414L16.9168 4.18821L17.8108 5.08225L19.2249 3.66818ZM19.9729 4.61423C19.8864 4.4203 19.7696 4.24139 19.6269 4.0842C19.4974 3.94126 19.3633 3.80251 19.2249 3.66818L17.8108 5.08325C17.9738 5.24625 18.0608 5.33526 18.1208 5.40326C18.1738 5.46326 18.1578 5.45626 18.1378 5.41026L19.9729 4.61423ZM20.0429 6.01829C20.1902 5.55722 20.1654 5.05836 19.9729 4.61423L18.1378 5.41026L20.0429 6.01829ZM19.3929 7.03433C19.5171 6.88654 19.6365 6.73479 19.7509 6.57931C19.8569 6.43131 19.9709 6.2473 20.0429 6.01829L18.1378 5.41026C18.1528 5.36326 18.1678 5.35326 18.1218 5.41926C18.0698 5.49226 17.9918 5.58927 17.8448 5.76828L19.3929 7.03433ZM18.7879 7.77337C18.7749 7.87637 18.7349 7.88837 18.8479 7.72536C18.9549 7.57036 19.1209 7.36635 19.3929 7.03433L17.8448 5.76828C17.5948 6.07429 17.3678 6.3493 17.2048 6.58431C17.0478 6.81032 16.8578 7.12234 16.8058 7.50635L18.7879 7.77337ZM18.7879 7.77337L16.8058 7.50635C16.7588 7.85632 16.8053 8.21249 16.9405 8.53868C17.0758 8.86486 17.2949 9.14942 17.5758 9.36344L18.7879 7.77337ZM19.7379 7.86837C19.4455 7.84391 19.154 7.80956 18.8639 7.76537C18.6689 7.73036 18.7059 7.71036 18.7879 7.77337L17.5758 9.36344C17.8838 9.59845 18.2378 9.68445 18.5098 9.73345C18.7909 9.78345 19.1449 9.81846 19.5389 9.85846L19.7379 7.86837ZM20.917 8.12638C20.727 8.03137 20.5231 7.96723 20.3129 7.93637C20.122 7.90754 19.9303 7.88486 19.7379 7.86837L19.5389 9.85846C19.687 9.87146 19.8347 9.88814 19.9819 9.90846C20.0619 9.92246 20.0449 9.92746 19.9999 9.90446L20.917 8.12638ZM21.86 9.16943C21.6823 8.71906 21.3472 8.34846 20.917 8.12638L20.0009 9.90646L21.86 9.16943ZM22 10.3675C22 10.1635 22 9.96046 21.989 9.78846C21.9789 9.57619 21.935 9.36689 21.859 9.16843L20.0009 9.90646C19.9829 9.85946 19.9889 9.84346 19.9949 9.92346C20.0009 10.0135 20.0009 10.1385 20.0009 10.3695L22 10.3675ZM22 11.6315V10.3675H19.9999V11.6315H22ZM21.86 12.8296C21.948 12.6066 21.977 12.3926 21.989 12.2096C22 12.0386 22 11.8355 22 11.6315H19.9999C19.9999 11.8625 19.9999 11.9876 19.9939 12.0776C19.9879 12.1576 19.9819 12.1416 19.9999 12.0946L21.86 12.8296ZM20.917 13.8726C21.3472 13.6506 21.6823 13.28 21.86 12.8296L20.0009 12.0956L20.917 13.8726ZM19.7379 14.1306C19.9419 14.1106 20.1429 14.0906 20.3129 14.0626C20.4929 14.0326 20.7029 13.9826 20.917 13.8726L20.0009 12.0956C20.0449 12.0726 20.0619 12.0776 19.9829 12.0906C19.8357 12.1117 19.688 12.1287 19.5399 12.1416L19.7379 14.1306ZM18.7889 14.2257C18.7059 14.2887 18.6689 14.2687 18.8639 14.2337C19.0499 14.2007 19.3109 14.1737 19.7379 14.1306L19.5389 12.1406C19.1459 12.1806 18.7909 12.2146 18.5098 12.2656C18.2388 12.3146 17.8838 12.4006 17.5758 12.6356L18.7889 14.2257ZM18.7889 14.2257L17.5758 12.6356C17.2949 12.8496 17.0758 13.1342 16.9405 13.4603C16.8053 13.7865 16.7588 14.1427 16.8058 14.4927L18.7889 14.2257ZM19.3929 14.9637C19.2035 14.7399 19.0217 14.5097 18.8479 14.2737C18.7349 14.1106 18.7759 14.1226 18.7889 14.2257L16.8058 14.4927C16.8578 14.8767 17.0478 15.1887 17.2058 15.4147C17.3688 15.6497 17.5948 15.9247 17.8448 16.2307L19.3929 14.9637ZM20.0429 15.9797C19.9758 15.7788 19.8773 15.5897 19.7509 15.4197C19.6509 15.2787 19.5219 15.1227 19.3929 14.9637L17.8448 16.2307C17.9908 16.4097 18.0698 16.5058 18.1218 16.5798C18.1688 16.6448 18.1538 16.6368 18.1378 16.5898L20.0429 15.9797ZM19.9729 17.3848C20.1656 16.9404 20.1905 16.4411 20.0429 15.9797L18.1378 16.5898L19.9729 17.3848ZM19.2249 18.3308C19.3699 18.1858 19.5129 18.0438 19.6269 17.9138C19.7469 17.7758 19.8769 17.6048 19.9729 17.3838L18.1378 16.5888C18.1578 16.5428 18.1738 16.5368 18.1208 16.5968C18.0608 16.6648 17.9738 16.7528 17.8108 16.9168L19.2249 18.3308ZM18.3308 19.2239L19.2249 18.3308L17.8108 16.9168L16.9168 17.8098L18.3308 19.2239ZM17.3848 19.9729C17.5788 19.8861 17.7577 19.769 17.9148 19.6259C18.0438 19.5129 18.1868 19.3689 18.3308 19.2239L16.9168 17.8098C16.813 17.9161 16.7063 18.0195 16.5968 18.1198C16.5368 18.1738 16.5438 18.1578 16.5898 18.1378L17.3848 19.9729ZM15.9807 20.0429C16.4418 20.1902 16.9407 20.1654 17.3848 19.9729L16.5898 18.1378L15.9807 20.0429ZM14.9647 19.3929C15.1227 19.5219 15.2787 19.6509 15.4197 19.7509C15.5677 19.8559 15.7517 19.9699 15.9807 20.0429L16.5898 18.1378C16.6368 18.1528 16.6458 18.1678 16.5798 18.1218C16.4609 18.0327 16.3445 17.9404 16.2307 17.8448L14.9647 19.3929ZM14.2267 18.7889C14.1236 18.7739 14.1106 18.7339 14.2737 18.8469C14.4287 18.9549 14.6317 19.1199 14.9637 19.3919L16.2307 17.8448C15.9247 17.5938 15.6497 17.3678 15.4147 17.2048C15.1887 17.0468 14.8767 16.8578 14.4927 16.8058L14.2267 18.7889ZM14.2267 18.7889L14.4927 16.8058C14.1427 16.7588 13.7865 16.8053 13.4603 16.9405C13.1342 17.0758 12.8496 17.2949 12.6356 17.5758L14.2267 18.7889ZM14.1306 19.7379C14.1737 19.3109 14.2007 19.0489 14.2337 18.8639C14.2687 18.6689 14.2887 18.7049 14.2257 18.7879L12.6356 17.5748C12.4006 17.8828 12.3146 18.2378 12.2656 18.5088C12.2156 18.7909 12.1816 19.1449 12.1416 19.5389L14.1306 19.7379ZM13.8716 20.917C13.9816 20.7029 14.0316 20.4929 14.0616 20.3129C14.0916 20.1429 14.1096 19.9419 14.1306 19.7379L12.1416 19.5389C12.1284 19.6874 12.111 19.8344 12.0896 19.9819C12.0766 20.0619 12.0716 20.0449 12.0946 19.9999L13.8716 20.917ZM12.8306 21.86C13.2802 21.6818 13.65 21.3468 13.8716 20.917L12.0956 20.0009L12.8306 21.86ZM11.6305 22C11.8355 22 12.0386 22 12.2106 21.989C12.3926 21.977 12.6066 21.95 12.8306 21.86L12.0956 20.0009C12.1426 19.9829 12.1586 19.9889 12.0786 19.9949C11.93 20.0011 11.7812 20.0031 11.6325 20.0009L11.6305 22ZM10.3675 22H11.6305L11.6315 19.9999H10.3675V22ZM9.16943 21.86C9.39244 21.948 9.60645 21.977 9.78945 21.989C9.96046 22 10.1635 22 10.3675 22V19.9999C10.1365 19.9999 10.0115 19.9999 9.92146 19.9939C9.84146 19.9879 9.85746 19.9819 9.90446 19.9999L9.16943 21.86ZM8.12638 20.917C8.34846 21.3472 8.71906 21.6823 9.16943 21.86L9.90446 19.9999L8.12638 20.917ZM7.86837 19.7379C7.88837 19.9419 7.90837 20.1429 7.93637 20.3129C7.96637 20.4929 8.01638 20.7029 8.12638 20.917L9.90646 20.0009C9.92946 20.0449 9.92446 20.0619 9.91146 19.9829C9.89035 19.8357 9.87334 19.688 9.86046 19.5399L7.86837 19.7379ZM7.77337 18.7879C7.71036 18.7059 7.73036 18.6679 7.76537 18.8639C7.79837 19.0489 7.82537 19.3109 7.86837 19.7379L9.85846 19.5389C9.81846 19.1449 9.78446 18.7909 9.73345 18.5088C9.68445 18.2388 9.59845 17.8838 9.36344 17.5758L7.77337 18.7879ZM7.77337 18.7879L9.36344 17.5758C9.14942 17.2949 8.86486 17.0758 8.53868 16.9405C8.21249 16.8053 7.85632 16.7588 7.50635 16.8058L7.77337 18.7879ZM7.03433 19.3929C7.36735 19.1209 7.57036 18.9549 7.72536 18.8479C7.88837 18.7349 7.87637 18.7749 7.77337 18.7879L7.50635 16.8058C7.12234 16.8578 6.81032 17.0478 6.58431 17.2058C6.3493 17.3678 6.07429 17.5938 5.76828 17.8448L7.03433 19.3929ZM6.01829 20.0429C6.2196 19.9759 6.40898 19.8774 6.57931 19.7509C6.71932 19.6509 6.87633 19.5219 7.03433 19.3929L5.76928 17.8458C5.6552 17.9414 5.53949 18.0338 5.42026 18.1228C5.35526 18.1698 5.36426 18.1548 5.41126 18.1388L6.01829 20.0429ZM4.61423 19.9729C5.05836 20.1654 5.55722 20.1902 6.01829 20.0429L5.40926 18.1378L4.61423 19.9729ZM3.66718 19.2249C3.81219 19.3699 3.9552 19.5129 4.0852 19.6269C4.22221 19.7469 4.39322 19.8779 4.61523 19.9739L5.40926 18.1378C5.45526 18.1578 5.46226 18.1738 5.40226 18.1208C5.29273 18.0205 5.18602 17.9171 5.08225 17.8108L3.66718 19.2249ZM2.77414 18.3308L3.66818 19.2249L5.08225 17.8108L4.18821 16.9168L2.77414 18.3308ZM2.02611 17.3848C2.12111 17.6048 2.25212 17.7768 2.37213 17.9148C2.48613 18.0438 2.62914 18.1868 2.77414 18.3308L4.18821 16.9168C4.08192 16.813 3.97854 16.7063 3.87819 16.5968C3.82519 16.5368 3.84119 16.5438 3.86119 16.5898L2.02611 17.3848ZM1.95611 15.9807C1.80877 16.4418 1.83365 16.9407 2.02611 17.3848L3.86119 16.5898L1.95611 15.9807ZM2.60614 14.9647C2.48195 15.1125 2.36255 15.2642 2.24812 15.4197C2.12164 15.59 2.02307 15.7794 1.95611 15.9807L3.86119 16.5898C3.84519 16.6368 3.83119 16.6458 3.87719 16.5798C3.9292 16.5068 4.0072 16.4097 4.1542 16.2307L2.60614 14.9647ZM3.21016 14.2257C3.22416 14.1226 3.26417 14.1106 3.15116 14.2737C3.04416 14.4287 2.87815 14.6327 2.60614 14.9647L4.1542 16.2307C4.40422 15.9247 4.63123 15.6497 4.79423 15.4147C4.95124 15.1887 5.14125 14.8767 5.19325 14.4927L3.21016 14.2257ZM3.21016 14.2257L5.19325 14.4927C5.24025 14.1427 5.19377 13.7865 5.05852 13.4603C4.92327 13.1342 4.70408 12.8496 4.42322 12.6356L3.21016 14.2257ZM2.26012 14.1306C2.68814 14.1737 2.95015 14.2007 3.13516 14.2337C3.33017 14.2687 3.29317 14.2887 3.21016 14.2257L4.42322 12.6356C4.1152 12.4006 3.76119 12.3146 3.48918 12.2656C3.20816 12.2156 2.85415 12.1806 2.45913 12.1406L2.26012 14.1306ZM1.08207 13.8726C1.29608 13.9826 1.50609 14.0326 1.6861 14.0626C1.8561 14.0906 2.05711 14.1116 2.26112 14.1316L2.45913 12.1406C2.31102 12.128 2.16429 12.1113 2.01711 12.0906C1.93711 12.0766 1.95411 12.0716 1.99911 12.0946L1.08207 13.8726ZM0.140027 12.8306C0.317765 13.281 0.652836 13.6516 1.08307 13.8736L2.00011 12.0956L0.140027 12.8306ZM2.0407e-05 11.6325C2.0407e-05 11.8365 2.04444e-05 12.0396 0.0110209 12.2116C0.0230215 12.3936 0.0510227 12.6076 0.141027 12.8316L2.00011 12.0946C2.01811 12.1416 2.01211 12.1576 2.00711 12.0776C2.00065 11.9293 1.99832 11.7809 2.00011 11.6325H2.0407e-05ZM2.0407e-05 10.3685V11.6325H2.00011V10.3685H2.0407e-05ZM0.140027 9.16943C0.0643691 9.36794 0.0208215 9.57724 0.0110209 9.78945C-0.0009796 9.96146 2.0407e-05 10.1645 2.0407e-05 10.3695H2.00011C2.00011 10.1375 2.00011 10.0125 2.00711 9.92246C2.01211 9.84246 2.01811 9.85846 2.00011 9.90546L0.140027 9.16943ZM1.08307 8.12838C0.653197 8.34997 0.318173 8.71981 0.140027 9.16943L2.00011 9.90546L1.08307 8.12838ZM2.26212 7.86837C2.05811 7.88937 1.8571 7.90837 1.6871 7.93837C1.50709 7.96837 1.29708 8.01838 1.08307 8.12838L2.00011 9.90546C1.95511 9.92846 1.93911 9.92346 2.01811 9.91046C2.16528 9.88935 2.31301 9.87234 2.46113 9.85946L2.26212 7.86837ZM3.21216 7.77437C3.29517 7.71136 3.33217 7.73136 3.13616 7.76637C2.95115 7.79937 2.68914 7.82637 2.26212 7.86937L2.46113 9.85946C2.85415 9.81946 3.20916 9.78546 3.49118 9.73445C3.76219 9.68545 4.1172 9.59945 4.42522 9.36444L3.21216 7.77437ZM3.21216 7.77437L4.42522 9.36444C4.70589 9.1503 4.92489 8.86569 5.05996 8.53952C5.19504 8.21334 5.24137 7.85723 5.19425 7.50735L3.21216 7.77437ZM2.60714 7.03533C2.87915 7.36735 3.04516 7.57136 3.15316 7.72636C3.26617 7.88937 3.22616 7.87737 3.21216 7.77437L5.19425 7.50735C5.14225 7.12334 4.95324 6.81232 4.79523 6.58531C4.63223 6.3503 4.40522 6.07529 4.15521 5.76928L2.60714 7.03533ZM1.95711 6.01829C2.03011 6.2483 2.14312 6.43131 2.24912 6.58031C2.34912 6.72032 2.47813 6.87733 2.60714 7.03533L4.15521 5.76928C4.05963 5.6552 3.96726 5.53949 3.87819 5.42026C3.83119 5.35526 3.84719 5.36326 3.86219 5.41026L1.95711 6.01829ZM2.02711 4.61523C1.8349 5.05906 1.81003 5.55752 1.95711 6.01829L3.86219 5.41026L2.02711 4.61523ZM2.77514 3.66818C2.63014 3.81319 2.48713 3.9552 2.37313 4.0852C2.23039 4.24239 2.11358 4.4213 2.02711 4.61523L3.86219 5.41026C3.84219 5.45626 3.82619 5.46326 3.87919 5.40226C3.9392 5.33426 4.0262 5.24625 4.18921 5.08225L2.77514 3.66818ZM3.66918 2.77514L2.77514 3.66818L4.18921 5.08225L5.08425 4.18921L3.66918 2.77514ZM4.61523 2.02611C4.42124 2.11289 4.24232 2.23003 4.0852 2.37313C3.94226 2.50264 3.80351 2.63671 3.66918 2.77514L5.08425 4.18921C5.24725 4.0252 5.33526 3.9382 5.40326 3.87919C5.46326 3.82519 5.45626 3.84119 5.41026 3.86119L4.61523 2.02611ZM6.01929 1.95611C5.55822 1.80877 5.05936 1.83365 4.61523 2.02611L5.41026 3.86119L6.01929 1.95611ZM7.03433 2.60614C6.87633 2.47713 6.72132 2.34912 6.58031 2.24912C6.41004 2.12229 6.22066 2.02338 6.01929 1.95611L5.41026 3.86119C5.36326 3.84619 5.35426 3.83119 5.42026 3.87719C5.49326 3.9302 5.59027 4.0082 5.76928 4.15521L7.03433 2.60614ZM7.77437 3.21116C7.87737 3.22516 7.88937 3.26517 7.72636 3.15216C7.49027 2.97832 7.26013 2.79654 7.03633 2.60714L5.76928 4.15521C6.07529 4.40522 6.3493 4.63123 6.58431 4.79523C6.81032 4.95224 7.12234 5.14125 7.50635 5.19325L7.77437 3.21116ZM7.77437 3.21116L7.50735 5.19325C7.85732 5.24025 8.21349 5.19377 8.53967 5.05852C8.86586 4.92327 9.15042 4.70408 9.36444 4.42322L7.77437 3.21116ZM7.86937 2.26112C7.82637 2.68914 7.79937 2.95115 7.76637 3.13616C7.73136 3.33117 7.71136 3.29417 7.77437 3.21116L9.36444 4.42322C9.59945 4.1152 9.68545 3.76119 9.73445 3.49018C9.78446 3.20916 9.82046 2.85415 9.85946 2.46013L7.86937 2.26112ZM8.12738 1.08307C8.03237 1.27304 7.96823 1.47694 7.93737 1.6871C7.90937 1.8571 7.88937 2.05811 7.86937 2.26212L9.85946 2.46013C9.87247 2.31207 9.88914 2.16535 9.90946 2.01811C9.92346 1.93811 9.92846 1.95611 9.90546 2.00011L8.12738 1.08307ZM9.17043 0.140027C8.72006 0.317765 8.34946 0.652836 8.12738 1.08307L9.90546 2.00011L9.17043 0.140027ZM10.3685 2.0407e-05C10.1645 2.0407e-05 9.96146 2.04444e-05 9.78945 0.0110209C9.57724 0.0208215 9.36794 0.0643691 9.16943 0.140027L9.90646 2.00011C9.85946 2.01811 9.84346 2.01211 9.92346 2.00711C10.0135 2.00111 10.1385 2.00011 10.3695 2.00011L10.3685 2.0407e-05ZM11.6325 2.0407e-05H10.3685V2.00011H11.6325V2.0407e-05ZM12.8306 0.140027C12.6321 0.0643691 12.4228 0.0208215 12.2106 0.0110209C12.0406 -0.0009796 11.8375 2.0407e-05 11.6335 2.0407e-05V2.00011C11.8645 2.00011 11.9896 2.00011 12.0796 2.00711C12.1596 2.01211 12.1426 2.01811 12.0956 2.00011L12.8306 0.140027ZM13.8736 1.08307C13.6516 0.652836 13.281 0.317765 12.8306 0.140027L12.0956 2.00011L13.8736 1.08307ZM14.0006 11.0005C14.0006 11.7962 13.6846 12.5593 13.1219 13.1219C12.5593 13.6846 11.7962 14.0006 11.0005 14.0006V16.0007C12.3267 16.0007 13.5985 15.4739 14.5362 14.5362C15.4739 13.5985 16.0007 12.3267 16.0007 11.0005H14.0006ZM11.0005 8.00038C11.7962 8.00038 12.5593 8.31646 13.1219 8.87909C13.6846 9.44173 14.0006 10.2048 14.0006 11.0005H16.0007C16.0007 9.67437 15.4739 8.40254 14.5362 7.46482C13.5985 6.52709 12.3267 6.00029 11.0005 6.00029V8.00038ZM8.00038 11.0005C8.00038 10.2048 8.31646 9.44173 8.87909 8.87909C9.44173 8.31646 10.2048 8.00038 11.0005 8.00038V6.00029C9.67437 6.00029 8.40254 6.52709 7.46482 7.46482C6.52709 8.40254 6.00029 9.67437 6.00029 11.0005H8.00038ZM11.0005 14.0006C10.2048 14.0006 9.44173 13.6846 8.87909 13.1219C8.31646 12.5593 8.00038 11.7962 8.00038 11.0005H6.00029C6.00029 12.3267 6.52709 13.5985 7.46482 14.5362C8.40254 15.4739 9.67437 16.0007 11.0005 16.0007V14.0006Z" fill="white"/>
</svg>
